<svg width="40" height="40" viewBox="0 0 40 40" fill="none" xmlns="http://www.w3.org/2000/svg">
<g clip-path="url(#clip0_3_18)">
<path d="M15.3845 0.289246C13.402 0.289044 11.4389 0.679348 9.6073 1.43787C7.77566 2.1964 6.11138 3.30828 4.70948 4.71004C3.30758 6.11179 2.19552 7.77596 1.43681 9.60752C0.678102 11.4391 0.287598 13.4021 0.287598 15.3846C0.287396 17.3672 0.677751 19.3305 1.43637 21.1622C2.19499 22.9939 3.30701 24.6583 4.70893 26.0602C6.11085 27.4621 7.77521 28.5742 9.60694 29.3328C11.4387 30.0914 13.4019 30.4818 15.3845 30.4816C18.9076 30.4816 22.143 29.2339 24.7122 27.2123L26.0584 28.5585C25.7819 29.0956 25.6841 29.7068 25.779 30.3034C25.8739 30.8999 26.1566 31.4506 26.5861 31.8754L33.6538 38.9908C34.7507 40.0892 36.5461 40.0892 37.6445 38.9908L38.9907 37.6446C39.5177 37.1143 39.8135 36.3969 39.8135 35.6492C39.8135 34.9015 39.5177 34.1842 38.9907 33.6539L31.8753 26.5862C31.4475 26.1596 30.8935 25.8825 30.2956 25.796C29.6978 25.7096 29.0879 25.8183 28.5568 26.1062L27.2107 24.76C28.9727 22.5364 30.0725 19.8613 30.3839 17.0413C30.6952 14.2213 30.2056 11.3707 28.9711 8.81621C27.7366 6.26176 25.8072 4.10692 23.4041 2.59875C21.0011 1.09059 18.2216 0.290158 15.3845 0.289246ZM15.3845 3.07694C18.6487 3.07694 21.7792 4.37364 24.0874 6.68178C26.3955 8.98992 27.6922 12.1204 27.6922 15.3846C27.6922 18.6488 26.3955 21.7793 24.0874 24.0875C21.7792 26.3956 18.6487 27.6923 15.3845 27.6923C12.1203 27.6923 8.98981 26.3956 6.68167 24.0875C4.37353 21.7793 3.07683 18.6488 3.07683 15.3846C3.07683 12.1204 4.37353 8.98992 6.68167 6.68178C8.98981 4.37364 12.1203 3.07694 15.3845 3.07694ZM7.59529 11.4908C6.77473 12.8199 6.34203 14.3519 6.34606 15.9139C6.34424 17.0193 6.56062 18.1142 6.98281 19.1359C7.405 20.1575 8.02469 21.0858 8.80635 21.8674C9.58801 22.6491 10.5163 23.2688 11.5379 23.691C12.5595 24.1131 13.6545 24.3295 14.7599 24.3277C16.4977 24.3241 18.1925 23.7871 19.6153 22.7892C19.2317 22.8248 18.8466 22.8402 18.4614 22.8354C17.0336 22.8391 15.6191 22.5605 14.2992 22.0158C12.9793 21.4712 11.78 20.671 10.7703 19.6615C9.76059 18.6519 8.9603 17.4527 8.41543 16.1329C7.87056 14.8131 7.59184 13.3986 7.59529 11.9708C7.59529 11.8108 7.5876 11.6508 7.59529 11.4908Z" fill="black"/>
</g>
<defs>
<clipPath id="clip0_3_18">
<rect width="40" height="40" fill="white"/>
</clipPath>
</defs>
</svg>
