<svg width="40" height="40" viewBox="0 0 40 40" fill="none" xmlns="http://www.w3.org/2000/svg">
<path fill-rule="evenodd" clip-rule="evenodd" d="M25.0001 15C25.0001 16.7682 24.2977 18.4638 23.0475 19.7141C21.7972 20.9643 20.1015 21.6667 18.3334 21.6667C16.5653 21.6667 14.8696 20.9643 13.6194 19.7141C12.3691 18.4638 11.6667 16.7682 11.6667 15C11.6667 13.2319 12.3691 11.5362 13.6194 10.286C14.8696 9.03575 16.5653 8.33337 18.3334 8.33337C20.1015 8.33337 21.7972 9.03575 23.0475 10.286C24.2977 11.5362 25.0001 13.2319 25.0001 15ZM21.6667 15C21.6667 15.8841 21.3156 16.7319 20.6904 17.3571C20.0653 17.9822 19.2175 18.3334 18.3334 18.3334C17.4494 18.3334 16.6015 17.9822 15.9764 17.3571C15.3513 16.7319 15.0001 15.8841 15.0001 15C15.0001 14.116 15.3513 13.2681 15.9764 12.643C16.6015 12.0179 17.4494 11.6667 18.3334 11.6667C19.2175 11.6667 20.0653 12.0179 20.6904 12.643C21.3156 13.2681 21.6667 14.116 21.6667 15Z" fill="black"/>
<path fill-rule="evenodd" clip-rule="evenodd" d="M18.3333 1.66669C8.20833 1.66669 0 9.87502 0 20C0 30.125 8.20833 38.3334 18.3333 38.3334C28.4583 38.3334 36.6667 30.125 36.6667 20C36.6667 9.87502 28.4583 1.66669 18.3333 1.66669ZM3.33333 20C3.33333 23.4834 4.52167 26.69 6.51333 29.2367C7.91205 27.3999 9.7165 25.9113 11.7857 24.8872C13.8549 23.8631 16.1329 23.3314 18.4417 23.3334C20.7205 23.3312 22.9699 23.8492 25.0182 24.848C27.0666 25.8468 28.8599 27.2999 30.2617 29.0967C31.7057 27.2027 32.6781 24.992 33.0982 22.6477C33.5183 20.3033 33.3741 17.8926 32.6775 15.615C31.9809 13.3374 30.752 11.2584 29.0925 9.55008C27.4329 7.84173 25.3904 6.55312 23.134 5.79087C20.8775 5.02862 18.472 4.81464 16.1164 5.16664C13.7609 5.51864 11.523 6.42651 9.58795 7.81511C7.65291 9.20371 6.07635 11.0331 4.98872 13.152C3.90108 15.2709 3.33363 17.6183 3.33333 20ZM18.3333 35C14.8899 35.0052 11.5504 33.8206 8.88 31.6467C9.95488 30.1079 11.3856 28.8516 13.0503 27.9845C14.7151 27.1174 16.5646 26.6654 18.4417 26.6667C20.2953 26.6652 22.1225 27.106 23.7715 27.9524C25.4206 28.7988 26.8439 30.0265 27.9233 31.5334C25.2322 33.7779 21.8376 35.0049 18.3333 35Z" fill="black"/>
</svg>
