<svg width="60" height="60" viewBox="0 0 60 60" fill="none" xmlns="http://www.w3.org/2000/svg">
<g clip-path="url(#clip0_19_34)">
<path d="M59.9999 30.1836C59.9999 13.5111 46.5674 -0.00390625 29.9999 -0.00390625C13.4249 -0.00015625 -0.00756836 13.5111 -0.00756836 30.1873C-0.00756836 45.2511 10.9649 57.7386 25.3049 60.0036V38.9098H17.6924V30.1873H25.3124V23.5311C25.3124 15.9673 29.7937 11.7898 36.6449 11.7898C39.9299 11.7898 43.3612 12.3786 43.3612 12.3786V19.8036H39.5774C35.8537 19.8036 34.6912 22.1323 34.6912 24.5211V30.1836H43.0087L41.6812 38.9061H34.6874V59.9998C49.0274 57.7348 59.9999 45.2473 59.9999 30.1836Z" fill="white"/>
</g>
<defs>
<clipPath id="clip0_19_34">
<rect width="60" height="60" fill="white"/>
</clipPath>
</defs>
</svg>
