<svg width="20" height="24" viewBox="0 0 20 24" fill="none" xmlns="http://www.w3.org/2000/svg">
<g clip-path="url(#clip0_19_64)">
<path d="M10 0C4.47937 0 0 3.45589 0 7.71429C0 14.5714 10 24 10 24C10 24 20 14.5714 20 7.71429C20 3.45589 15.5206 0 10 0ZM10 12C9.20887 12 8.43552 11.7989 7.77772 11.4222C7.11992 11.0454 6.60723 10.51 6.30448 9.88349C6.00173 9.257 5.92252 8.56763 6.07686 7.90255C6.2312 7.23747 6.61216 6.62656 7.17157 6.14706C7.73098 5.66757 8.44372 5.34103 9.21964 5.20874C9.99556 5.07644 10.7998 5.14434 11.5307 5.40384C12.2616 5.66334 12.8864 6.10279 13.3259 6.66662C13.7654 7.23044 14 7.89332 14 8.57143C13.9988 9.48044 13.577 10.3519 12.8271 10.9947C12.0773 11.6375 11.0605 11.999 10 12Z" fill="white"/>
</g>
<defs>
<clipPath id="clip0_19_64">
<rect width="20" height="24" fill="white"/>
</clipPath>
</defs>
</svg>
